<?xml version="1.0" standalone="no"?>
<svg xmlns="http://www.w3.org/2000/svg" viewBox="0 0 91.225 36" width="91.225" height="36"><g fill="#26ad9b" color="#26ad9b" transform="translate(0 3.9999999999999982) scale(0.5600001)"><svg width="50.0" height="50.0" x="0.0" y="0.0" viewBox="0 0 50 50"><g><g><circle fill="currentColor" cx="683.798" cy="3613.543" r="2.722"></circle></g><g><g><polygon fill="currentColor" points="667.215,3621.643 667.096,3621.664 666.981,3621.719    "></polygon><path fill="currentColor" d="M670.965,3620.113l-0.005-0.049c-0.011-0.092-0.007-0.182-0.004-0.271l-3.86,1.87l0.119-0.021     l-0.233,0.076l0.114-0.055l-2.04,0.356l3.024,0.543l3.369-1.188l-0.468-1.217L670.965,3620.113z"></path><polygon fill="currentColor" points="668.366,3623.15 668.148,3623.111 667.943,3623.18    "></polygon><path fill="currentColor" d="M671.625,3621.965l-3.477,1.146l0.218,0.039l-0.423,0.029l0.205-0.068l-6.765-1.205l-0.287-0.051     l-0.26,0.135l-2.566,2.278l2.906-0.638l-0.095-0.018l0.548-0.082l-0.453,0.1l6.885,1.227l0.215,0.037l0.21-0.068l4.651-1.535     c-0.305-0.07-0.593-0.199-0.846-0.397C671.981,3622.648,671.759,3622.326,671.625,3621.965z"></path><polygon fill="currentColor" points="661.082,3623.613 661.177,3623.631 661.63,3623.531    "></polygon><path fill="currentColor" d="M671.732,3619.86c0,0.029-0.011,0.056-0.009,0.089l0.449,1.17l0.177-0.063L671.732,3619.86z"></path><path fill="currentColor" d="M672.371,3621.719c0.085,0.22,0.207,0.422,0.397,0.572c0.283,0.225,0.635,0.324,0.993,0.283     c0,0,0.244-0.029,0.623-0.072l-0.43-1.305L672.371,3621.719z"></path><polygon fill="currentColor" points="683.339,3617.053 683.33,3617.053 683.332,3617.061    "></polygon><path fill="currentColor" d="M671.5,3621.475c0.004,0.025,0.013,0.051,0.017,0.076l0.007,0.018L671.5,3621.475z"></path><polygon fill="currentColor" points="681.532,3616.273 681.544,3616.275 681.584,3616.265    "></polygon><path fill="currentColor" d="M671.722,3619.978c-0.002-0.011,0.002-0.021,0.002-0.028l-0.024-0.066L671.722,3619.978z"></path></g><g><path fill="currentColor" d="M689.647,3616.198l-6.232,1.229l-2.36,0.514c0.53,0.594,1.804,1.62,3.045,2.844l5.945-3.133l18.038,0.684     l0.203-1.105L689.647,3616.198z"></path></g></g><g><polygon fill="currentColor" points="691.565,3621.357 690.935,3620.948 690.396,3621.482   "></polygon><polygon fill="currentColor" points="693.587,3618.316 690.935,3620.948 691.565,3621.357 690.396,3621.482 690.935,3620.948     688.235,3619.206 686.314,3620.191 690.555,3622.928 691.186,3623.338 691.723,3622.803 695.934,3618.412   "></polygon><g><polygon fill="currentColor" points="686.488,3621.979 685.934,3621.525 685.3,3622.035    "></polygon><polygon fill="currentColor" points="690.111,3618.184 685.934,3621.525 686.488,3621.979 685.3,3622.035 685.934,3621.525      685.078,3620.828 684.02,3621.371 683.688,3621.107 680.273,3617.859 679.446,3619.011 685.367,3623.475 685.985,3623.939      686.559,3623.42 692.289,3618.254    "></polygon><polygon fill="currentColor" points="680.706,3617.256 680.336,3617.771 681.089,3617.568    "></polygon><polygon fill="currentColor" points="680.216,3617.803 680.273,3617.859 680.336,3617.771    "></polygon><g><path fill="currentColor" d="M680.336,3617.771l0.753-0.203c0,0,1.638-0.379,1.838-0.432c-0.217-0.555-0.764-0.928-1.383-0.861      l-8.585,2.189l-0.025,0.008l-0.024,0.002c-0.701,0.082-1.198,0.693-1.177,1.386l0.617,1.196l-0.177,0.063l0.067,0.175      l0.018,0.044l0.005,0.049c0.013,0.117,0.065,0.225,0.108,0.332l1.584-0.521l0.43,1.305c1.93-0.225,7.768-0.906,7.77-0.906      c0.201-0.021,0.386-0.109,0.557-0.223l-1.261-2.396l-1.177-1.118L680.336,3617.771z"></path></g></g></g></g><g><path fill="currentColor" d="M6.668,28.033H0.651c0.628,5.086,2.806,9.691,6.056,13.324c0.234-0.293,0.465-0.586,0.686-0.875   L6.668,28.033z"></path><path fill="currentColor" d="M6.575,8.798c1.207,0.83,7.826,5.746,9.165,14.251c1.024,6.511-1.321,13.361-6.965,20.357   c3.98,3.513,9.11,5.756,14.756,6.088V0.507C16.782,0.906,10.771,4.032,6.575,8.798z"></path><path fill="currentColor" d="M43.222,41.441c3.291-3.647,5.497-8.285,6.128-13.416l-11.764,0.013   C37.938,32.242,39.823,36.73,43.222,41.441z"></path><path fill="currentColor" d="M37.847,23.331c-0.121,0.6-0.203,1.208-0.259,1.816l11.951-0.012c0-0.044,0.002-0.089,0.002-0.134   c0-4.765-1.361-9.21-3.711-12.975C44.699,12.754,39.25,16.569,37.847,23.331z"></path><path fill="currentColor" d="M35.019,22.746c1.585-7.649,7.454-11.976,9.138-13.079C39.935,4.4,33.592,0.913,26.42,0.502v48.996   c5.621-0.318,10.732-2.533,14.715-6.01C35.742,36.156,33.688,29.18,35.019,22.746z"></path><path fill="currentColor" d="M6.668,28.033l0.725,12.449c3.237-4.287,5.101-8.453,5.568-12.449H6.668z"></path><g><g><path fill="currentColor" d="M12.89,23.528c-0.955-6.15-5.282-10.234-7.176-11.756c-0.531-0.43-0.881-0.667-0.895-0.678l0.001,0.002     c0,0-0.039,0.002-0.058,0.026c-2.713,3.948-4.305,8.729-4.305,13.88c0,0.048,0.005,0.094,0.005,0.142h12.588     C13.023,24.602,12.975,24.062,12.89,23.528z"></path></g></g></g></svg></g><path fill="#ffffff" fill-rule="nonzero" d="M5.30 21Q2.50 21 1.25 19.61Q0 18.22 0 15.12L0 15.12L0 13.10L4.06 13.10L4.06 15.67Q4.06 17.21 5.04 17.21L5.04 17.21Q5.59 17.21 5.81 16.88Q6.02 16.56 6.02 15.79L6.02 15.79Q6.02 14.78 5.78 14.12Q5.54 13.46 5.17 13.02Q4.80 12.58 3.84 11.64L3.84 11.64L2.06 9.86Q0 7.85 0 5.40L0 5.40Q0 2.76 1.21 1.38Q2.42 0 4.75 0L4.75 0Q7.54 0 8.76 1.48Q9.98 2.95 9.98 6.10L9.98 6.10L5.78 6.10L5.76 4.68Q5.76 4.27 5.53 4.03Q5.30 3.79 4.90 3.79L4.90 3.79Q4.42 3.79 4.18 4.06Q3.94 4.32 3.94 4.78L3.94 4.78Q3.94 5.78 5.09 6.86L5.09 6.86L7.49 9.17Q8.33 9.98 8.88 10.72Q9.43 11.45 9.77 12.44Q10.10 13.44 10.10 14.81L10.10 14.81Q10.10 17.86 8.99 19.43Q7.87 21 5.30 21L5.30 21ZM15.41 20.81L11.21 20.81L11.21 17.30L15.41 17.30L15.41 20.81ZM20.76 20.81L16.78 20.81L16.78 0.19L20.76 0.19L20.76 20.81ZM26.35 20.81L22.15 20.81L22.15 17.30L26.35 17.30L26.35 20.81ZM32.16 21Q29.93 21 28.84 19.43Q27.74 17.86 27.74 14.66L27.74 14.66L27.74 5.78Q27.74 2.93 29.02 1.46Q30.29 0 32.81 0L32.81 0Q34.85 0 35.98 0.82Q37.10 1.63 37.54 3.19Q37.97 4.75 37.97 7.20L37.97 7.20L33.94 7.20L33.94 5.35Q33.94 4.61 33.73 4.20Q33.53 3.79 33 3.79L33 3.79Q31.82 3.79 31.82 5.33L31.82 5.33L31.82 15.31Q31.82 16.25 32.06 16.73Q32.30 17.21 32.90 17.21L32.90 17.21Q33.50 17.21 33.74 16.73Q33.98 16.25 33.98 15.31L33.98 15.31L33.98 12.36L32.88 12.36L32.88 8.81L37.92 8.81L37.92 20.81L36.26 20.81L35.57 19.08Q34.46 21 32.16 21L32.16 21ZM43.49 20.81L39.29 20.81L39.29 17.30L43.49 17.30L43.49 20.81ZM45.05 20.81L45.05 0.19L50.74 0.19Q52.94 0.19 54.05 1.42Q55.15 2.64 55.18 5.04L55.18 5.04L55.22 14.69Q55.25 17.74 54.17 19.27Q53.09 20.81 50.59 20.81L50.59 20.81L45.05 20.81ZM49.20 17.16L49.92 17.16Q51.05 17.16 51.05 16.06L51.05 16.06L51.05 5.42Q51.05 4.73 50.94 4.38Q50.83 4.03 50.54 3.91Q50.26 3.79 49.66 3.79L49.66 3.79L49.20 3.79L49.20 17.16Z" transform="translate(36, 7.5)"></path></svg>